Coordinates
version=1
nRows=8
nColumns=40
inDegrees=yes

Units are S.I. units (second, meters, Newtons, ...)
Angles are in degrees.

endheader
time	pelvis_tilt	pelvis_list	pelvis_rotation	pelvis_tx	pelvis_ty	pelvis_tz	hip_flexion_r	hip_adduction_r	hip_rotation_r	knee_angle_r	knee_angle_r_beta	ankle_angle_r	subtalar_angle_r	mtp_angle_r	hip_flexion_l	hip_adduction_l	hip_rotation_l	knee_angle_l	knee_angle_l_beta	ankle_angle_l	subtalar_angle_l	mtp_angle_l	lumbar_extension	lumbar_bending	lumbar_rotation	arm_flex_r	arm_add_r	arm_rot_r	elbow_flex_r	pro_sup_r	wrist_flex_r	wrist_dev_r	arm_flex_l	arm_add_l	arm_rot_l	elbow_flex_l	pro_sup_l	wrist_flex_l	wrist_dev_l
     26.81000000	     -3.82925360	     -7.00004848	     -0.90251887	      1.03355707	      0.92138454	      0.45737240	     19.92823410	      5.22727099	    -13.65718076	     19.09847686	     19.09847686	      4.92158008	     -6.18163112	     -4.27403121	     11.05629685	    -13.74349808	     -5.27720789	     48.66427872	     48.66427872	      9.12893507	    -18.35181083	     -6.81394264	     -9.23310533	      8.31199777	      2.44515526	     -7.88151068	    -11.32602876	    -11.01475104	     22.93543981	     46.88970647	      0.00000000	      0.00000000	     18.93076587	    -11.21632523	     -5.60130166	     63.47372267	     47.26131471	      0.00000000	      0.00000000
     26.82200000	     -3.75156360	     -7.16117988	     -0.62123149	      1.03381104	      0.92234015	      0.45924168	     19.03952001	      5.49918139	    -14.08183992	     18.58805673	     18.58805673	      5.31091843	     -5.64536545	     -4.45528869	     13.46749328	    -14.30025482	     -4.01636038	     53.03882008	     53.03882008	      7.02612531	    -18.57290570	     -4.69819696	     -9.31624816	      8.43120965	      2.39961241	     -6.22398014	    -11.30658646	    -10.65619238	     23.97317428	     46.82362077	      0.00000000	      0.00000000	     18.47229325	    -10.72342361	     -5.32000778	     60.54833751	     47.20066201	      0.00000000	      0.00000000
     26.83400000	     -3.70964765	     -7.35602991	     -0.37550724	      1.03395148	      0.92313046	      0.46109968	     18.20822537	      5.83813792	    -14.41485506	     18.07346956	     18.07346956	      5.61954121	     -5.29646540	     -4.53598847	     15.87174782	    -14.85891031	     -2.82660244	     57.00409537	     57.00409537	      4.42760889	    -18.76006254	     -3.82346289	     -9.44634710	      8.55220218	      2.56699709	     -4.45714601	    -11.31610297	    -10.55542584	     24.82136300	     46.79309964	      0.00000000	      0.00000000	     17.57734778	    -10.16491489	     -5.00274146	     59.29359393	     47.15176942	      0.00000000	      0.00000000
     26.84600000	     -3.73437054	     -7.31347670	     -0.15591692	      1.03401416	      0.92387488	      0.46252697	     17.41688377	      5.86847610	    -14.86151075	     17.52010092	     17.52010092	      5.89092951	     -4.49124816	     -5.01711609	     18.48913460	    -14.72292897	     -1.26198010	     60.98265951	     60.98265951	      3.99063013	    -18.57429732	      2.77837874	     -9.34101550	      8.49228909	      2.95171198	     -3.29943469	    -11.54486246	     -9.30396498	     26.77737547	     46.59812671	      0.00000000	      0.00000000	     18.03480922	     -9.37663509	     -4.40849286	     53.82779542	     47.04022638	      0.00000000	      0.00000000
     26.85800000	     -3.73985306	     -7.40833896	      0.02401910	      1.03408855	      0.92449631	      0.46416073	     16.65011080	      6.10544498	    -15.11619195	     17.03296808	     17.03296808	      6.19592657	     -4.03555128	     -5.12602425	     20.77330908	    -14.92181981	     -0.11498952	     64.05344500	     64.05344500	      1.85704876	    -18.67220573	      3.57134052	     -9.36088645	      8.50268097	      2.81369487	     -1.30435112	    -11.58510398	     -9.16329326	     27.88192449	     46.55494287	      0.00000000	      0.00000000	     16.90919556	     -9.12413065	     -4.08912913	     52.18937372	     46.98289770	      0.00000000	      0.00000000
     26.87000000	     -3.72694717	     -7.45570542	      0.16038670	      1.03413335	      0.92510823	      0.46575795	     15.89385558	      6.28947125	    -15.35508391	     16.60116409	     16.60116409	      6.47887598	     -3.56175674	     -5.25111301	     22.91740513	    -15.00257749	      0.91275106	     66.62872376	     66.62872376	      0.23959436	    -18.67765822	      4.51405384	     -9.40017014	      8.40532496	      2.71703226	      0.79304416	    -11.66091701	     -8.96393967	     29.03857111	     46.50644713	      0.00000000	      0.00000000	     15.90133632	     -8.85462052	     -3.75546774	     50.14193768	     46.92064513	      0.00000000	      0.00000000
     26.88200000	     -3.70022604	     -7.26478412	      0.26086801	      1.03412350	      0.92587646	      0.46698617	     15.13825733	      6.15491185	    -15.69755297	     16.23385008	     16.23385008	      6.76142217	     -2.71125897	     -5.63202754	     24.99426882	    -14.67090392	      1.79285073	     68.85768555	     68.85768555	      0.21570460	    -18.42894317	      8.57312693	     -9.37286883	      8.18464311	      3.34646463	      2.04654424	    -12.13033314	     -6.88716984	     31.23522913	     46.26078484	      0.00000000	      0.00000000	     16.84327412	     -8.04049510	     -2.94539805	     43.45011750	     46.77883494	      0.00000000	      0.00000000
     26.89400000	     -3.71299680	     -7.20943381	      0.34812737	      1.03409993	      0.92645720	      0.46842752	     14.41958301	      6.25025932	    -15.73630052	     15.81772002	     15.81772002	      7.06406199	     -2.37234041	     -5.68049219	     26.88916404	    -14.61973291	      2.44107137	     70.34480515	     70.34480515	     -0.53856803	    -18.44499908	      8.90392528	     -9.38363564	      8.00002097	      3.14473929	      4.21877574	    -12.17152237	     -6.56483058	     32.72050129	     46.19179976	      0.00000000	      0.00000000	     15.66425112	     -7.94869572	     -2.63771881	     41.51588141	     46.71557313	      0.00000000	      0.00000000
